<?xml version="1.0" encoding="UTF-8" standalone="no"?> <!-- Created with Vectornator for iOS (http://vectornator.io/) --><!DOCTYPE svg PUBLIC "-//W3C//DTD SVG 1.1//EN" "http://www.w3.org/Graphics/SVG/1.1/DTD/svg11.dtd">
<svg style="fill-rule:evenodd;clip-rule:evenodd;stroke-linecap:round;stroke-linejoin:round;" xmlns:vectornator="http://vectornator.io" xmlns:xlink="http://www.w3.org/1999/xlink" xmlns="http://www.w3.org/2000/svg" xml:space="preserve" version="1.1" viewBox="0 0 256 257">
<metadata>
<vectornator:setting key="RulersVisible" value="1"/>
<vectornator:setting key="Units" value="Pixels"/>
<vectornator:setting key="DynamicGuides" value="1"/>
<vectornator:setting key="GuidesVisible" value="1"/>
<vectornator:setting key="CMYKEnabledKey" value="0"/>
<vectornator:setting key="SnapToGuides" value="1"/>
<vectornator:setting key="GridSpacing" value="36"/>
</metadata>
<defs>
<linearGradient y1="19.6653" id="LinearGradient" x1="-2.11993" y2="201.516" x2="147.548" gradientUnits="userSpaceOnUse" gradientTransform="matrix(1 0 0 1 0 0)">
<stop stop-color="#41d1ff" offset="0"/>
<stop stop-color="#bd34fe" offset="1"/>
</linearGradient>
<linearGradient y1="5.76142" id="LinearGradient_2" x1="111.043" y2="228.807" x2="128.809" gradientUnits="userSpaceOnUse" gradientTransform="matrix(1 0 0 1 0 0)">
<stop stop-color="#ffea83" offset="0"/>
<stop stop-color="#ffdd35" offset="1"/>
<stop stop-color="#ffa800" offset="1"/>
</linearGradient>
</defs>
<g id="Untitled" vectornator:layerName="Untitled">
<g opacity="1">
<path d="M255.153+37.9378L134.897+252.976C132.414+257.416+126.035+257.442+123.515+253.024L0.874432+37.9585C-1.87112+33.1438+2.24595+27.3119+7.70191+28.2871L128.087+49.8052C128.855+49.9425+129.641+49.9411+130.409+49.8012L248.276+28.318C253.714+27.3269+257.85+33.1136+255.153+37.9378Z" opacity="1" fill="url(#LinearGradient)"/>
<path d="M185.432+0.0631039L96.4394+17.5009C94.9767+17.7875+93.8937+19.0271+93.8055+20.5147L88.3311+112.971C88.2024+115.149+90.2023+116.839+92.3277+116.349L117.105+110.631C119.423+110.096+121.518+112.138+121.041+114.469L113.68+150.516C113.185+152.942+115.462+155.016+117.831+154.297L133.135+149.647C135.507+148.927+137.787+151.007+137.285+153.435L125.587+210.056C124.855+213.598+129.566+215.529+131.53+212.493L132.843+210.465L205.359+65.7456C206.574+63.3225+204.479+60.5595+201.818+61.0731L176.314+65.9952C173.918+66.4573+171.879+64.2254+172.555+61.8805L189.201+4.1757C189.878+1.82693+187.832-0.406958+185.432+0.0631039Z" opacity="1" fill="url(#LinearGradient_2)"/>
</g>
</g>
</svg>
