<svg version="1.0" xmlns="http://www.w3.org/2000/svg"
 width="512.000000pt" height="512.000000pt" viewBox="0 0 512.000000 512.000000">
<g transform="translate(0.000000,512.000000) scale(0.100000,-0.100000)"
fill="#000000" stroke="none">
<path d="M123 4794 c4 -7 0 -14 -8 -18 -8 -3 -15 -1 -15 5 0 6 -4 7 -10 4 -18
-11 -51 -14 -45 -4 4 5 -4 7 -17 5 -18 -2 -22 -9 -20 -27 2 -13 8 -25 13 -27
5 -2 9 -10 9 -18 0 -8 5 -14 10 -14 6 0 10 -9 10 -21 0 -13 4 -18 12 -13 8 5
9 2 5 -9 -4 -10 0 -20 8 -25 8 -4 16 -19 17 -33 1 -14 8 -26 15 -26 10 0 10 4
3 11 -5 5 -10 14 -10 20 0 5 7 1 15 -10 8 -10 15 -28 15 -38 0 -10 8 -25 18
-33 9 -8 12 -12 6 -9 -6 3 -11 -1 -11 -8 0 -8 6 -12 14 -9 7 3 13 -2 13 -11 0
-9 5 -16 11 -16 8 0 7 -5 -1 -15 -11 -13 -10 -14 2 -10 9 4 15 0 16 -10 1 -8
3 -22 4 -30 2 -18 14 -20 21 -2 4 7 6 6 6 -5 1 -9 4 -18 9 -21 4 -2 2 -3 -4
-1 -6 1 -11 -4 -11 -12 0 -7 4 -11 8 -8 4 2 12 -4 18 -13 7 -13 10 -14 11 -4
0 8 3 11 6 8 4 -4 1 -14 -7 -24 -9 -11 -10 -14 -1 -9 7 4 12 1 12 -8 0 -9 5
-16 10 -16 6 0 10 -8 10 -17 0 -10 7 -27 15 -37 8 -10 12 -23 9 -28 -3 -5 2
-12 12 -14 11 -3 24 -16 31 -30 8 -18 8 -23 0 -18 -7 4 3 -7 21 -23 22 -20 29
-32 22 -39 -8 -8 -5 -15 7 -25 17 -13 17 -13 3 6 -15 20 -14 20 8 1 22 -19 30
-32 13 -22 -5 3 -11 -3 -14 -15 -4 -16 -3 -18 7 -9 10 7 17 6 27 -7 8 -9 9
-14 2 -10 -7 4 -10 1 -9 -10 2 -9 9 -19 17 -21 11 -3 11 -1 -1 7 -8 6 -10 11
-4 11 18 0 23 -11 14 -35 -7 -18 -5 -22 8 -21 9 0 16 -5 15 -11 -2 -7 2 -13 7
-13 6 0 10 -7 10 -15 0 -8 8 -15 17 -15 15 0 14 -2 -3 -16 -10 -8 -14 -13 -8
-10 6 3 20 -2 30 -10 17 -14 17 -15 1 -10 -15 5 -16 2 -7 -14 6 -11 13 -20 16
-20 3 0 2 5 -2 12 -4 7 -3 8 4 4 7 -4 12 -16 12 -27 0 -10 5 -19 11 -19 5 0 7
-4 4 -10 -3 -5 0 -10 8 -10 7 0 19 -12 25 -26 7 -14 8 -23 2 -19 -5 3 -10 1
-10 -4 0 -6 7 -11 16 -11 8 0 12 -4 9 -10 -3 -5 -1 -10 4 -10 6 0 11 -5 11
-11 0 -5 -5 -7 -11 -4 -6 4 -5 -2 3 -14 7 -12 21 -24 31 -27 9 -3 15 -10 12
-15 -8 -12 20 -51 30 -41 5 4 5 2 1 -5 -8 -14 14 -64 25 -57 5 3 9 -5 9 -16 0
-16 4 -20 16 -16 8 3 12 2 9 -3 -3 -5 -1 -12 4 -15 5 -4 8 -18 6 -32 -2 -18 2
-24 11 -20 10 4 14 -3 14 -22 0 -21 2 -24 10 -12 8 12 10 10 10 -8 0 -16 4
-21 13 -16 7 5 6 0 -3 -11 -9 -11 -10 -16 -2 -11 7 4 12 1 12 -9 0 -9 4 -13
10 -10 6 3 7 -1 4 -9 -4 -11 0 -16 12 -16 15 0 16 -2 5 -9 -9 -6 -10 -10 -2
-12 6 -2 13 -15 16 -28 2 -13 7 -26 11 -30 4 -3 4 2 1 12 -4 11 -3 16 4 12 5
-4 8 -19 5 -35 -3 -25 -1 -28 20 -25 13 1 21 -1 19 -6 -3 -4 -2 -9 2 -12 5 -2
2 -2 -5 -1 -9 3 -10 -1 -2 -16 6 -11 13 -20 16 -20 3 0 2 5 -2 12 -4 6 -3 8 4
5 5 -4 8 -16 5 -26 -3 -10 0 -22 6 -25 7 -5 9 0 5 11 -5 15 -4 16 5 3 6 -8 11
-25 11 -37 0 -15 5 -21 13 -17 9 3 13 -3 12 -18 -1 -15 -8 -22 -19 -22 -9 1
-16 -2 -16 -6 0 -11 -33 -7 -42 5 -5 6 -12 4 -18 -5 -5 -8 -10 -11 -10 -6 0 5
-9 -1 -19 -13 -11 -13 -17 -30 -14 -38 5 -12 3 -14 -7 -8 -10 6 -12 4 -7 -8 4
-10 1 -17 -5 -17 -7 0 -2 -9 10 -20 12 -11 25 -32 28 -45 3 -14 10 -25 15 -25
5 0 9 -7 9 -15 0 -8 5 -15 11 -15 5 0 7 -4 4 -10 -3 -5 4 -20 17 -33 13 -13
22 -30 20 -40 -2 -9 6 -22 17 -29 12 -7 21 -21 21 -31 0 -10 7 -20 16 -24 8
-3 13 -12 10 -20 -3 -7 1 -16 9 -19 7 -3 11 -12 8 -20 -3 -9 2 -14 13 -15 11
0 14 -3 6 -6 -8 -3 -5 -11 10 -24 13 -10 17 -18 10 -19 -7 0 -2 -11 13 -25 23
-24 29 -38 26 -57 0 -5 4 -8 11 -8 6 0 9 -3 5 -6 -8 -9 16 -33 27 -26 5 3 6 0
3 -6 -8 -12 2 -44 12 -38 4 3 8 -5 8 -16 1 -12 7 -24 13 -28 6 -4 13 -16 14
-26 2 -10 9 -18 14 -17 7 2 9 -4 5 -14 -5 -12 -3 -14 7 -8 10 6 12 4 7 -8 -6
-17 15 -41 27 -30 4 4 4 0 0 -10 -4 -10 -1 -17 6 -17 10 0 10 -3 0 -15 -10
-12 -10 -15 3 -15 17 0 43 -37 33 -47 -3 -3 2 -12 10 -20 8 -8 11 -19 8 -25
-4 -7 -2 -8 4 -4 7 4 12 2 12 -4 0 -6 5 -8 11 -4 7 4 7 -1 -1 -16 -8 -15 -8
-20 -1 -16 6 4 11 2 11 -4 0 -6 4 -9 9 -6 4 3 13 -13 20 -34 6 -22 16 -40 21
-40 6 0 10 -9 10 -20 0 -11 5 -20 10 -20 6 0 10 -9 10 -21 0 -11 4 -18 8 -15
5 3 15 -10 22 -29 8 -19 18 -35 22 -35 5 0 6 -4 3 -10 -3 -5 -1 -10 5 -10 6 0
8 -4 5 -10 -3 -5 -2 -10 3 -10 10 0 36 -53 32 -66 -1 -4 6 -11 14 -16 9 -5 24
-27 32 -49 9 -21 20 -36 26 -33 5 3 9 0 7 -7 -3 -28 1 -40 13 -33 8 5 9 0 6
-14 -4 -12 -2 -20 2 -17 5 3 11 1 15 -5 3 -5 1 -10 -5 -10 -7 0 -6 -5 2 -14 9
-10 15 -11 20 -2 5 6 8 2 8 -11 0 -13 -1 -24 -2 -26 -2 -1 6 -12 17 -24 30
-33 61 -88 44 -79 -8 4 -6 1 3 -7 12 -10 14 -17 7 -24 -8 -8 -7 -11 2 -10 8 1
15 -2 17 -8 2 -5 10 -17 18 -26 8 -9 14 -23 12 -30 -2 -8 4 -14 13 -13 9 1 16
-5 17 -12 1 -8 3 -21 4 -29 1 -8 5 -15 10 -15 5 0 7 -4 4 -9 -3 -5 1 -11 9
-15 8 -3 12 -12 9 -21 -4 -10 -2 -15 7 -13 9 2 13 -4 11 -15 -2 -9 2 -17 8
-17 5 0 10 -5 10 -11 0 -6 7 -17 15 -26 8 -8 13 -19 10 -24 -4 -5 -2 -9 3 -9
9 0 25 -37 23 -52 0 -4 7 -4 16 -1 9 4 14 2 10 -4 -3 -5 0 -21 8 -36 7 -14 10
-28 7 -32 -4 -3 2 -3 13 1 11 4 17 4 13 -1 -4 -4 -1 -20 7 -35 8 -15 11 -31 7
-35 -4 -5 1 -5 11 -2 10 4 16 3 12 -2 -3 -5 -1 -12 5 -16 6 -4 8 -11 5 -16 -4
-5 -1 -9 4 -9 6 0 11 -6 11 -13 0 -7 9 -23 20 -35 12 -12 16 -22 9 -22 -6 0
-1 -9 12 -21 13 -11 17 -18 9 -14 -10 4 -9 2 2 -8 10 -8 15 -17 11 -20 -3 -4
-1 -7 6 -7 9 0 11 -8 8 -21 -5 -17 -3 -18 11 -7 11 9 14 9 8 1 -4 -7 -1 -23 6
-35 7 -13 11 -26 10 -30 -1 -5 4 -7 10 -5 7 1 14 -8 16 -20 2 -13 8 -23 13
-23 5 0 9 -7 9 -15 0 -8 5 -15 10 -15 6 0 10 -7 10 -16 0 -9 5 -12 13 -8 8 5
8 2 -2 -9 -12 -15 -9 -21 10 -19 4 1 5 -8 2 -19 -3 -11 -2 -19 3 -17 5 2 9 0
9 -4 0 -4 10 -15 23 -24 16 -11 20 -19 13 -28 -7 -9 -4 -16 9 -26 11 -8 20
-20 20 -26 0 -19 46 -95 53 -87 4 3 7 -3 7 -15 0 -12 5 -22 11 -22 5 0 7 -5 4
-10 -3 -6 1 -13 9 -16 9 -3 14 -10 11 -14 -3 -5 4 -11 15 -15 11 -4 18 -10 16
-13 -2 -4 11 -8 30 -8 21 0 34 4 34 12 0 8 7 11 18 7 9 -3 14 -3 10 1 -4 5 4
18 17 30 18 17 21 26 13 34 -8 8 -4 14 15 23 23 10 25 15 14 27 -6 9 -7 13 -2
10 6 -3 19 6 29 20 12 15 14 22 5 17 -8 -5 -6 1 4 13 11 11 16 25 12 31 -3 7
0 8 9 5 11 -4 14 1 12 20 -2 14 0 25 3 24 21 -2 29 5 26 22 -2 13 2 20 11 20
8 0 12 5 9 10 -3 6 -1 10 5 10 6 0 8 4 5 10 -3 5 -1 18 4 27 8 14 11 15 11 3
0 -12 3 -11 11 3 5 9 7 22 4 27 -3 6 -1 10 5 10 6 0 9 4 6 9 -3 5 1 12 10 15
9 3 14 13 11 20 -3 8 2 20 11 28 15 12 16 11 4 -4 -9 -11 -10 -18 -2 -23 6 -4
10 -3 9 2 -1 4 0 10 1 13 2 6 9 34 13 56 2 8 17 29 33 47 16 17 23 28 17 23
-9 -5 -11 -2 -7 8 3 9 10 14 14 11 4 -3 11 2 14 11 4 9 2 13 -5 8 -6 -3 -3 5
6 20 10 14 21 26 25 26 4 0 11 7 14 16 6 15 4 15 -11 3 -17 -13 -17 -13 0 7 9
11 17 25 17 31 0 5 9 18 20 28 12 10 18 25 16 32 -3 7 -1 13 4 13 5 0 22 27
37 60 15 32 34 59 41 60 7 0 11 4 8 9 -4 5 0 12 6 14 10 4 10 6 1 6 -7 1 -13
6 -13 12 0 6 7 8 17 5 10 -4 14 -4 10 0 -4 4 -2 13 3 20 6 6 9 18 8 25 -2 8 3
13 10 12 6 -2 12 4 12 12 0 8 4 15 9 15 5 0 8 11 5 25 -3 19 -1 23 11 19 10
-4 15 0 15 15 0 12 5 21 10 21 6 0 10 8 8 17 -2 10 2 18 9 18 6 0 15 4 20 9 5
5 3 6 -4 2 -7 -4 -13 -2 -13 3 0 6 5 11 11 11 5 0 8 4 5 9 -3 5 1 11 9 15 8 3
12 12 9 21 -4 10 0 15 11 15 9 0 13 5 10 10 -3 6 0 13 9 16 9 4 13 14 10 31
-5 24 -3 25 12 12 12 -9 15 -10 10 -1 -4 7 1 23 13 38 11 14 17 32 14 41 -4 9
-2 14 3 10 6 -3 16 3 23 15 10 16 10 18 0 12 -7 -4 -1 8 14 28 15 19 27 40 27
47 0 17 31 62 40 56 4 -2 6 7 4 20 -1 14 2 23 7 19 8 -4 10 1 9 21 -1 3 6 13
15 21 8 9 15 22 15 30 0 8 5 12 10 9 5 -3 10 2 10 12 0 10 11 35 25 55 14 20
25 42 25 48 0 6 5 8 10 5 6 -4 10 -3 9 2 -4 21 2 44 10 39 8 -5 26 48 22 66 0
5 2 7 7 7 20 -3 31 2 26 15 -3 7 2 20 10 29 8 8 12 17 9 21 -4 3 -1 6 6 6 7 0
9 5 6 10 -3 6 -1 10 5 10 7 0 9 7 6 16 -3 8 -2 12 4 9 6 -3 10 1 10 9 0 9 5
16 10 16 6 0 10 8 10 18 0 10 9 28 20 40 11 12 20 28 20 37 0 8 5 15 10 15 6
0 10 9 10 19 0 10 7 21 15 25 8 3 15 9 14 13 -3 20 2 34 10 28 6 -3 8 4 6 15
-2 11 0 18 6 15 8 -6 13 9 10 29 -1 5 5 6 14 2 10 -3 13 -2 10 5 -4 5 -1 16 5
24 7 8 9 15 4 15 -5 0 -1 5 9 11 9 5 17 16 17 23 0 17 30 75 31 61 0 -5 4 0
10 13 5 13 14 20 20 16 8 -4 8 0 0 15 -7 11 -8 21 -4 21 10 1 59 80 56 91 -2
5 2 9 9 9 6 0 8 3 5 7 -4 3 3 17 15 30 12 13 23 31 24 41 2 9 7 18 13 20 5 2
8 9 5 17 -3 7 4 19 15 27 12 8 19 17 16 20 -3 3 1 11 9 17 8 7 12 19 9 27 -3
7 2 16 10 20 16 6 12 44 -6 44 -6 0 -8 3 -4 6 8 8 -18 34 -33 34 -6 0 -8 5 -5
10 8 12 -1 13 -23 1 -11 -6 -21 -4 -30 5 -9 10 -9 14 -1 14 6 0 8 7 5 16 -3 8
-2 12 4 9 5 -3 12 6 16 20 4 15 12 24 18 22 8 -3 12 4 12 17 -1 14 4 20 14 18
12 -3 12 -1 3 9 -10 10 -10 16 1 28 8 9 14 21 14 26 0 6 10 16 23 22 14 8 18
13 9 13 -12 0 -12 2 -2 9 7 4 12 14 10 21 -2 8 3 15 10 16 26 3 27 5 12 14
-13 8 -12 10 3 10 9 0 17 5 17 11 0 5 5 7 11 3 8 -5 9 -2 2 11 -8 14 -5 26 14
54 25 37 42 57 28 32 -5 -9 -4 -12 3 -7 6 4 9 13 6 20 -3 8 0 17 5 21 6 3 9
11 5 16 -3 5 0 8 7 7 6 -2 12 7 14 19 1 13 5 26 10 30 4 5 5 0 2 -9 -4 -12 -2
-15 8 -11 11 4 12 10 4 25 -9 16 -8 19 2 13 9 -6 11 -2 6 14 -5 19 -3 20 11 9
9 -8 13 -8 9 -1 -4 6 -2 13 3 15 6 2 12 17 14 33 2 20 9 30 19 29 11 -1 14 5
11 24 -4 22 -3 24 11 12 13 -11 14 -10 9 5 -6 14 -4 16 7 10 12 -7 12 -6 1 7
-10 13 -8 20 14 42 15 14 23 26 18 26 -5 1 2 8 16 16 15 9 18 13 6 9 -15 -4
-17 -3 -8 8 7 8 8 18 4 23 -4 4 0 3 10 -4 12 -10 18 -10 24 -1 4 8 3 9 -4 5
-22 -13 -12 13 10 28 12 9 18 16 12 16 -5 0 -15 -5 -22 -12 -9 -9 -12 -9 -12
0 0 7 4 12 9 12 5 0 12 8 15 18 4 11 18 25 31 32 14 7 23 15 20 18 -2 3 -12
-1 -22 -9 -10 -8 -5 1 10 19 15 19 24 39 20 45 -4 7 1 6 10 -2 15 -12 17 -12
11 3 -3 9 -1 16 5 16 6 0 11 5 11 11 0 5 -4 7 -10 4 -6 -3 -7 1 -4 9 3 9 9 14
13 12 3 -2 15 3 26 11 16 13 17 15 3 10 -22 -8 -24 8 -3 17 8 3 15 13 15 21 0
10 5 13 12 9 9 -5 8 -2 -1 9 -12 15 -12 17 2 11 12 -4 15 -1 12 15 -3 14 0 19
7 15 7 -5 9 -1 5 9 -4 10 -2 16 6 14 7 -1 11 6 11 16 -1 9 2 17 8 17 5 0 6 5
2 12 -4 7 -3 8 4 4 7 -4 12 -2 12 4 0 6 4 9 9 6 5 -4 7 3 4 14 -3 11 -1 20 5
20 6 0 9 11 7 25 -1 14 2 28 8 32 6 3 7 1 3 -5 -4 -7 -1 -12 9 -12 9 0 13 4
10 10 -3 6 -1 10 4 10 6 0 11 9 11 20 0 14 5 18 18 14 14 -5 15 -4 2 5 -13 10
-13 12 0 20 8 5 18 7 24 4 5 -3 6 -1 2 6 -4 6 -11 9 -16 6 -5 -3 -12 -1 -15 5
-4 6 -3 10 2 9 13 -3 43 12 43 23 0 5 -4 7 -9 3 -5 -3 -13 -1 -16 5 -4 6 -3
10 2 9 19 -3 34 2 29 10 -3 5 2 12 11 15 15 6 15 8 3 17 -12 8 -10 10 8 6 20
-5 21 -3 10 11 -11 14 -10 15 7 8 16 -6 17 -5 8 5 -10 10 -9 15 5 26 12 10 12
12 2 8 -9 -4 -8 -1 3 8 10 9 19 19 20 24 1 4 6 7 11 5 5 -2 4 3 -1 10 -12 13
5 48 22 48 5 0 0 -9 -10 -20 -10 -11 -13 -20 -8 -20 13 0 25 26 27 55 1 11 8
20 16 20 8 0 15 7 16 15 2 34 4 41 12 36 4 -2 14 5 22 17 12 20 12 21 -3 9
-13 -11 -15 -10 -10 7 3 12 9 19 12 16 4 -2 8 2 8 8 0 14 -35 17 -54 4 -6 -4
-13 -2 -15 4 -2 7 -13 9 -26 5 -13 -4 -19 -12 -16 -18 4 -7 2 -8 -5 -4 -6 4
-9 12 -6 17 4 5 2 9 -4 9 -5 0 -12 -4 -15 -9 -8 -12 -87 -7 -115 8 -13 7 -21
9 -17 3 3 -5 -1 -12 -9 -16 -8 -3 -15 -1 -15 5 0 6 -7 6 -19 -1 -13 -7 -22 -7
-26 0 -3 5 -11 10 -17 10 -6 0 -5 -7 3 -17 12 -16 11 -16 -8 0 -20 17 -22 17
-31 2 -8 -16 -9 -16 -15 -1 -5 13 -11 15 -26 7 -10 -6 -21 -7 -25 -4 -4 4 -20
8 -37 9 -27 2 -29 1 -17 -14 10 -14 8 -13 -9 1 -20 17 -22 17 -31 2 -8 -16 -9
-16 -15 -1 -5 13 -11 15 -25 7 -13 -7 -22 -7 -29 0 -14 14 -56 1 -47 -13 4 -7
2 -8 -5 -4 -6 4 -9 12 -6 17 4 5 2 9 -4 9 -5 0 -12 -4 -15 -9 -6 -10 -82 -7
-109 4 -10 4 -24 2 -32 -5 -11 -9 -15 -9 -15 -1 0 7 -4 9 -10 6 -17 -10 -51
-15 -45 -6 2 5 -12 7 -33 6 -54 -4 -54 -4 -46 -17 4 -7 3 -8 -5 -4 -6 4 -9 12
-6 17 7 11 -8 12 -19 2 -11 -11 -96 -10 -96 1 0 5 -7 3 -15 -4 -12 -10 -15
-10 -15 1 0 12 -2 12 -9 1 -7 -11 -9 -10 -15 3 -4 10 -11 13 -18 8 -7 -4 -22
-8 -33 -8 -11 0 -26 -4 -32 -8 -8 -5 -13 -3 -13 4 0 9 -3 9 -14 0 -10 -8 -16
-9 -21 -1 -3 5 -11 10 -17 10 -6 0 -5 -7 3 -17 12 -16 11 -16 -8 0 -20 17 -22
17 -31 2 -8 -16 -9 -16 -15 -1 -5 13 -11 15 -26 7 -10 -6 -21 -7 -25 -4 -4 4
-20 8 -37 9 -27 2 -29 1 -17 -14 10 -14 8 -13 -9 1 -20 17 -22 17 -31 2 -8
-16 -9 -16 -15 -1 -5 13 -11 15 -25 7 -13 -7 -22 -7 -30 1 -6 6 -16 7 -24 2
-18 -11 -68 -12 -68 -1 0 5 -6 4 -14 -2 -11 -9 -15 -9 -18 1 -4 11 -8 11 -20
0 -12 -10 -17 -10 -20 -1 -2 7 -12 9 -26 5 -13 -4 -19 -12 -16 -18 4 -7 2 -8
-5 -4 -6 4 -9 12 -6 17 7 11 -8 12 -19 2 -10 -11 -106 -11 -100 -1 3 4 1 8 -5
8 -5 0 -12 -6 -14 -12 -4 -10 -6 -10 -6 -1 -1 14 -31 6 -31 -9 0 -5 5 -6 12
-2 7 4 8 3 4 -4 -4 -7 -14 -12 -22 -12 -8 0 -12 -4 -9 -10 3 -5 1 -10 -4 -10
-6 0 -11 -5 -11 -11 0 -5 6 -7 13 -4 6 4 3 0 -7 -9 -10 -8 -22 -13 -27 -11 -4
3 -5 -5 -2 -16 4 -14 0 -25 -10 -30 -9 -5 -14 -18 -12 -29 2 -13 -1 -17 -11
-13 -7 3 -11 10 -7 16 3 6 1 7 -6 3 -9 -6 -9 -11 0 -22 11 -13 5 -19 -15 -15
-5 1 -3 -5 4 -14 11 -13 11 -16 0 -13 -7 2 -15 -3 -18 -11 -3 -9 0 -11 8 -6 9
6 11 4 6 -4 -5 -7 -15 -10 -23 -6 -14 5 -14 3 -2 -12 12 -15 12 -16 -2 -11 -9
4 -16 1 -16 -8 0 -7 5 -10 10 -7 6 3 7 1 3 -6 -4 -6 -13 -10 -19 -9 -7 2 -12
-2 -12 -7 0 -6 6 -9 15 -7 8 1 5 -4 -8 -11 -18 -10 -20 -15 -10 -25 11 -11 10
-12 -4 -7 -11 4 -20 -1 -28 -14 -6 -12 -8 -21 -4 -21 4 0 -3 -11 -15 -24 -13
-14 -20 -29 -17 -35 4 -5 -2 -16 -12 -23 -11 -7 -18 -21 -16 -31 2 -14 -1 -16
-11 -7 -11 9 -12 7 -8 -11 4 -15 3 -20 -5 -15 -16 10 -15 -7 1 -23 10 -10 8
-11 -7 -5 -16 6 -18 4 -14 -14 4 -13 2 -20 -6 -19 -6 1 -10 -4 -8 -11 1 -6 -1
-11 -5 -11 -5 1 -15 1 -23 0 -13 -1 -13 -3 0 -10 8 -6 19 -7 25 -4 5 4 6 2 2
-3 -5 -5 -13 -10 -18 -10 -5 -1 -14 -2 -20 -3 -5 0 -7 -5 -4 -11 3 -5 1 -10
-6 -10 -8 0 -8 -4 1 -15 11 -13 10 -14 -4 -9 -15 6 -22 -10 -17 -38 0 -5 -8
-13 -18 -20 -11 -7 -17 -18 -13 -27 5 -13 3 -14 -10 -3 -13 11 -15 8 -12 -17
3 -23 0 -29 -11 -24 -11 4 -13 1 -8 -13 4 -12 3 -15 -5 -10 -8 5 -10 2 -6 -8
4 -11 0 -16 -12 -16 -16 0 -17 -2 -4 -10 13 -8 13 -10 -2 -10 -9 0 -20 -5 -24
-12 -5 -7 -3 -8 6 -3 8 5 11 3 8 -6 -3 -8 -11 -13 -18 -11 -11 2 -11 0 -1 -12
13 -16 -1 -32 -19 -21 -5 3 -7 0 -5 -7 3 -8 -1 -22 -9 -33 -12 -17 -15 -17
-29 -3 -9 9 -13 18 -10 22 4 3 -2 6 -12 6 -10 0 -15 3 -12 7 4 3 1 13 -6 21
-8 11 -8 14 0 9 6 -4 15 -3 18 3 4 6 3 10 -2 9 -22 -4 -33 3 -33 21 0 10 -8
24 -17 29 -14 8 -15 10 -3 11 13 0 13 2 0 9 -8 6 -18 7 -24 4 -5 -3 -6 -1 -2
5 4 7 1 12 -6 12 -8 0 -9 3 -3 8 6 4 11 13 13 21 3 12 1 12 -13 1 -15 -12 -16
-12 -13 2 1 10 -6 24 -17 33 -11 9 -14 14 -7 10 6 -3 12 -1 12 4 0 6 -4 11
-10 11 -5 0 -10 7 -10 15 0 8 -5 15 -11 15 -5 0 -7 5 -4 10 3 6 2 10 -4 10 -6
0 -15 10 -22 21 -9 17 -8 20 3 14 7 -4 2 2 -11 13 -16 13 -22 25 -18 36 4 10
3 14 -3 11 -11 -7 -32 29 -23 39 3 3 -1 6 -10 6 -10 0 -17 7 -17 16 0 9 5 12
12 8 15 -10 -32 58 -51 72 -8 6 -12 15 -9 20 7 10 -17 36 -25 28 -9 -9 -19 35
-11 47 5 8 3 9 -6 4 -10 -6 -12 -4 -7 9 4 10 3 15 -3 11 -6 -3 -10 -1 -10 5 0
6 -4 8 -10 5 -6 -4 -7 1 -3 11 4 12 3 15 -5 10 -16 -9 -15 7 0 22 9 9 7 11
-10 7 -12 -2 -21 -1 -21 3 4 26 -2 42 -13 36 -9 -5 -9 -2 1 9 9 12 10 17 2 17
-7 0 -9 4 -6 10 3 5 0 8 -7 5 -13 -5 -38 36 -38 63 0 8 -6 12 -14 9 -10 -4
-13 -1 -9 8 3 9 -4 19 -18 25 -23 10 -23 10 -1 6 25 -5 30 9 6 18 -8 3 -13 9
-11 14 8 12 -21 45 -33 37 -6 -3 -9 -1 -8 6 3 15 -31 19 -49 6 -6 -4 -14 -3
-18 3 -3 5 -11 10 -17 10 -6 0 -5 -7 3 -17 12 -16 11 -16 -8 0 -20 17 -22 17
-31 2 -8 -16 -9 -16 -15 -1 -5 13 -11 15 -26 7 -10 -6 -21 -7 -25 -4 -4 4 -20
8 -37 9 -27 2 -29 1 -17 -14 10 -14 8 -13 -9 1 -20 17 -22 17 -31 2 -8 -16 -9
-16 -15 -1 -5 13 -11 15 -25 7 -13 -7 -22 -7 -30 1 -6 6 -16 7 -24 2 -18 -11
-68 -12 -68 -1 0 5 -6 4 -14 -2 -11 -9 -15 -9 -18 1 -4 11 -8 11 -20 0 -12
-10 -17 -10 -20 -1 -2 7 -12 9 -26 5 -13 -4 -19 -12 -16 -18 4 -7 2 -8 -5 -4
-6 4 -9 12 -6 17 7 11 -8 12 -19 2 -11 -11 -96 -10 -96 1 0 5 -6 3 -14 -3 -11
-9 -15 -9 -18 1 -4 11 -8 11 -20 0 -12 -10 -17 -10 -20 -1 -2 7 -12 9 -26 5
-13 -4 -19 -12 -16 -18 4 -7 2 -8 -5 -4 -6 4 -9 12 -6 17 4 5 2 9 -4 9 -5 0
-12 -4 -15 -9 -8 -12 -87 -7 -115 8 -13 7 -21 9 -17 3 3 -5 -1 -12 -9 -16 -8
-3 -15 -1 -15 5 0 6 -7 6 -19 -1 -13 -7 -22 -7 -26 0 -3 5 -11 10 -17 10 -6 0
-5 -7 3 -17 12 -16 11 -16 -8 0 -20 17 -22 17 -31 2 -8 -16 -9 -16 -15 -1 -5
13 -11 15 -26 7 -10 -6 -21 -7 -25 -4 -4 4 -20 8 -37 9 -27 2 -29 1 -17 -14
10 -14 8 -13 -9 1 -20 17 -22 17 -31 2 -8 -16 -9 -16 -15 -1 -5 13 -11 15 -25
7 -13 -7 -22 -7 -29 0 -14 14 -56 1 -47 -13 4 -7 2 -8 -5 -4 -6 4 -9 12 -6 17
4 5 2 9 -4 9 -5 0 -12 -4 -15 -9 -6 -10 -82 -7 -109 4 -10 4 -24 2 -32 -5 -11
-9 -15 -9 -15 -1 0 7 -4 9 -10 6 -17 -10 -51 -15 -45 -6 2 5 -12 7 -33 6 -54
-4 -54 -4 -46 -17 4 -7 3 -8 -5 -4 -6 4 -9 12 -6 17 7 11 -8 12 -19 2 -11 -11
-96 -10 -96 1 0 5 -3 6 -7 3 -3 -4 -13 -1 -21 6 -10 8 -13 8 -9 1z m3817 -30
c0 -8 -19 -13 -24 -6 -3 5 1 9 9 9 8 0 15 -2 15 -3z m-1945 -23 c3 -5 0 -13
-6 -17 -7 -4 -9 -3 -5 4 3 5 0 13 -6 15 -9 4 -10 6 -1 6 6 1 14 -3 18 -8z
m-1328 -1096 c0 -8 -4 -12 -9 -9 -5 3 -6 10 -3 15 9 13 12 11 12 -6z m283
-471 c0 -8 -19 -13 -24 -6 -3 5 1 9 9 9 8 0 15 -2 15 -3z"/>
<path d="M378 4093 c7 -3 16 -2 19 1 4 3 -2 6 -13 5 -11 0 -14 -3 -6 -6z"/>
<path d="M2710 4039 c0 -5 5 -7 10 -4 6 3 10 8 10 11 0 2 -4 4 -10 4 -5 0 -10
-5 -10 -11z"/>
<path d="M580 3736 c0 -2 7 -7 16 -10 8 -3 12 -2 9 4 -6 10 -25 14 -25 6z"/>
<path d="M4489 3683 c-13 -16 -12 -17 4 -4 9 7 17 15 17 17 0 8 -8 3 -21 -13z"/>
<path d="M750 3442 c0 -5 7 -9 15 -9 8 0 12 4 9 9 -3 4 -9 8 -15 8 -5 0 -9 -4
-9 -8z"/>
<path d="M4185 3170 c-3 -5 -1 -10 4 -10 6 0 11 5 11 10 0 6 -2 10 -4 10 -3 0
-8 -4 -11 -10z"/>
<path d="M4165 3130 c-3 -6 1 -7 9 -4 18 7 21 14 7 14 -6 0 -13 -4 -16 -10z"/>
<path d="M2905 570 c-3 -6 1 -7 9 -4 18 7 21 14 7 14 -6 0 -13 -4 -16 -10z"/>
</g>
</svg>
